<svg id="logo_positiv" xmlns="http://www.w3.org/2000/svg" width="231" height="128.726" viewBox="0 0 231 128.726">
  <path id="Fill-1" d="M109.164,23.92c-3.351-4.394-8.109-5.386-11.279-5.723a34.376,34.376,0,0,0-7.784.424L92.335,1.9a.557.557,0,0,0,.011-.132.509.509,0,0,0-.245-.485L89.549.132a1.215,1.215,0,0,0-.5-.132H67.246a.63.63,0,0,0-.608.508L65.4,9.306a.574.574,0,0,0-.009.127.619.619,0,0,0,.25.479S74.12,13.866,74.7,14.3c-.141.737-3.974,27.867-4.2,29.65a34.716,34.716,0,0,0-.249,5.227c.122,4.551,1.287,8.777,4.238,12.165a19.658,19.658,0,0,0,12.894,7.118c13.054,1.214,24.124-9.14,26.318-24.048,1.341-9.138-.539-15.227-4.534-20.5" transform="translate(25.12)" fill="#fffffe" fill-rule="evenodd"/>
  <path id="Fill-2" d="M108.936,43.465C106.655,55.543,96.964,64.688,86.988,64.4S71.523,55.287,73.055,42.711l4.98-34.886-10.68.016.878-6.123,18.812.036L83.86,24.677A20.114,20.114,0,0,1,97.467,21.37C106.8,22.475,111.215,31.336,108.936,43.465Zm.228-19.545c-3.351-4.394-8.109-5.386-11.279-5.723a34.376,34.376,0,0,0-7.784.424L92.335,1.9a.557.557,0,0,0,.011-.132.509.509,0,0,0-.245-.485L89.549.132a1.215,1.215,0,0,0-.5-.132H67.246a.63.63,0,0,0-.608.508L65.4,9.306a.574.574,0,0,0-.009.127.619.619,0,0,0,.25.479S74.12,13.866,74.7,14.3c-.141.737-3.974,27.867-4.2,29.65a34.716,34.716,0,0,0-.249,5.227c.122,4.551,1.287,8.777,4.238,12.165a19.658,19.658,0,0,0,12.894,7.118c13.054,1.214,24.124-9.14,26.318-24.048C115.04,35.278,113.159,29.188,109.164,23.92Z" transform="translate(25.12)" fill="#b4283d" fill-rule="evenodd"/>
  <path id="Fill-3" d="M92.677,21.328c2.744,1.1,4.523,9.153,1.673,16.863C91.5,45.86,85.1,50.184,82.359,49.026c-2.212-.934-2.8-8.277.055-15.872,2.851-7.638,8.049-12.71,10.263-11.826" transform="translate(30.917 8.155)" fill="#1a1919" fill-rule="evenodd"/>
  <g id="Group-7" transform="translate(0 28.392)">
    <path id="Fill-4" d="M89.53,1.666a.677.677,0,0,0,.249-.324.862.862,0,0,0-.55-.994A.773.773,0,0,0,88.873.3C83.95.949,78.753,5.159,76.343,11.477c-2.405,6.289-1.332,12.929,1.9,16.809l0,0a.91.91,0,0,0,.3.212A.819.819,0,0,0,79.6,28.17a.669.669,0,0,0,.025-.409h0a26.431,26.431,0,0,1,9.9-26.092v0" transform="translate(28.824 -0.295)" fill="#1a1919" fill-rule="evenodd"/>
    <path id="Fill-6" d="M0,62.936H8.023c5.115,0,7.048-.6,8.584-1.528a7.283,7.283,0,0,0,3.464-5.542c.086-1.244-.07-5.081-5.442-5.933A7.265,7.265,0,0,0,17.677,48.4a4.846,4.846,0,0,0,1.657-3.2A4.43,4.43,0,0,0,17.9,41.619c-1.528-1.208-3.691-1.349-7.159-1.349-1.086,0-7.647.141-9.189.141ZM7.568,43.112a24.886,24.886,0,0,1,3.183.071c.591.072,1.978.285,1.79,3.019-.233,3.376-2.125,3.376-4.893,3.376H7.123Zm-.644,9.343h.665c2.943,0,3.644,0,4.518.534.772.5,1.238,1.35,1.125,2.984-.183,2.664-1.323,3.446-2.852,3.765-.64.142-.711.142-3.968.142Zm19-12.043L24.369,62.936H41.22l.247-3.588H31.027l1.306-18.936Zm29.549,0L43.2,62.936h5.08l2.67-5.684h8.127l1.64,5.684h7.217L60.446,40.411ZM52.429,54.054,56.053,46.2l2.226,7.852ZM88.68,41.512c-.053-.746-.046-.851-.461-.923a29.111,29.111,0,0,0-5.882-.57c-3.573,0-5.647.6-7.516,1.812a6.309,6.309,0,0,0-2.833,5.009c-.106,1.529-.087,4.3,4.683,6.253,5.487,2.24,6.293,2.736,6.178,4.405s-1.508,2.558-3.716,2.558A11.348,11.348,0,0,1,73.839,58.6c-.2-.107-1.239-.818-1.275-.818a1.254,1.254,0,0,0-.43.141l-.907.463c-.4.177-.367.248-.379.923l-.036,2.558c-.009.639.158.746.5.817a35.1,35.1,0,0,0,6.259.675,17.109,17.109,0,0,0,5.589-.781c4.768-1.564,5.535-5.082,5.634-6.5.3-4.406-3.407-5.968-6.337-7.176-3.543-1.457-4.769-1.954-4.674-3.34.157-2.273,2.993-2.273,3.45-2.273a10.235,10.235,0,0,1,4.863,1.1,4.7,4.7,0,0,0,1.115.6,2.063,2.063,0,0,0,.358-.106l.875-.5c.33-.213.334-.284.336-.818Zm5.915-1.1L93.043,62.936h17.831l.247-3.588H99.7l.453-6.572h9.774l.228-3.3h-9.774l.392-5.685h10.965l.233-3.375Zm28.653,13.038h1.611c3.089,8.029,5.72,10.02,9.854,10.02a11.012,11.012,0,0,0,3.077-.427c.285-.071.362-.177.421-.533l.279-1.492-.094-.177c-3.464-.57-6.167-6.076-7.173-8.243,4.389-1.172,5.462-4.014,5.6-6a5.606,5.606,0,0,0-1.752-4.584c-1.814-1.634-4.329-1.74-7.377-1.74-.7,0-1.086,0-4.489.071-1.718.035-3.438.071-5.189.071l-1.553,22.524h6.131Zm.7-10.124,2.311.035c2.382,0,4.024.569,3.836,3.3-.221,3.2-1.847,3.909-4.334,3.909-.7,0-1.469-.036-2.308-.071Zm38.523-1.742c.094-.355.1-.461-.069-.532a22.761,22.761,0,0,0-6.9-1.032c-9.7,0-14.427,6-14.846,12.081a9.98,9.98,0,0,0,4.129,9.235c1.64,1.1,3.96,1.99,8.234,1.99a24.6,24.6,0,0,0,6.936-.995c.323-.106.361-.177.466-.674l.562-2.558c.06-.355.062-.391-.206-.569l-.536-.355a.846.846,0,0,0-.274-.108c-.1,0-.552.391-.66.427a9.339,9.339,0,0,1-5.113,1.528c-6.237,0-6.868-5.579-6.619-9.2.421-6.111,3.458-7.462,6.647-7.462a10.753,10.753,0,0,1,5.5,1.457c.032.035.774.462.774.462.069,0,.108-.036.36-.142l.691-.356c.361-.177.364-.213.461-.6ZM175.1,40.411,162.825,62.936h5.08l2.67-5.684H178.7l1.639,5.684h7.217l-7.485-22.524Zm-3.042,13.643L175.68,46.2l2.226,7.852Zm20.449-13.643-1.553,22.524h6.411l.691-10.018h9.423l.234-3.375h-9.425l.4-5.757h11.21l.234-3.375Zm21.118,0L212.07,62.936H229.9l.246-3.588H218.73l.453-6.572h9.773l.228-3.3h-9.775l.393-5.685h10.965L231,40.411Zm13.08-9.779-6.4,7.435,2.126.674,7.76-4.334.252-2.07Z" transform="translate(0 11.359)" fill="#1a1919" fill-rule="evenodd"/>
  </g>
  <path id="Fill-8" d="M109.414,82.891l-.763,13.992h14.554l.763-13.992H109.414" transform="translate(41.738 31.842)" fill="#fffffe" fill-rule="evenodd"/>
  <path id="Fill-9" d="M56.637,83.593a.287.287,0,0,0-.222-.3,9.772,9.772,0,0,0-2.84-.4c-3.144,0-5.262,1.51-5.386,3.827-.122,2.3,1.721,3.084,3.884,4,1.653.7,2.776,1.19,2.7,2.573-.08,1.488-1.59,2.169-3,2.169a7.523,7.523,0,0,1-3.505-.935,2.132,2.132,0,0,0-.42-.256c-.043,0-.111.043-.133.043l-.334.169c-.112.064-.093.128-.1.276l.126,1.3c.011.191.1.234.371.34a16.33,16.33,0,0,0,3.573.489c3.512,0,5.458-1.956,5.571-4.061.121-2.276-1.8-3.147-3.689-3.977-2.2-.957-3.008-1.319-2.941-2.572.079-1.467,1.454-2.041,2.776-2.041a5.6,5.6,0,0,1,2.587.68,3.137,3.137,0,0,0,.526.3c.021,0,.043,0,.111-.042l.376-.149c.09-.064.094-.127.077-.234Zm5.818-.447-.39,7.295c-.153,2.87-.071,3.763.552,4.7.44.681,1.4,1.744,4.415,1.744a7.38,7.38,0,0,0,5.074-1.637c1.142-1.084,1.439-2.573,1.6-5.274l.43-6.826H72.362L72,89.994c-.093,1.744-.208,3.083-.79,3.849a4.441,4.441,0,0,1-3.5,1.424c-.411,0-2.383-.042-3.084-1.1-.479-.766-.43-1.68-.318-3.786l.387-7.23ZM79.52,96.629h2.233l.72-13.483H80.24Zm16.8-13.036a.287.287,0,0,0-.222-.3,9.771,9.771,0,0,0-2.84-.4c-3.143,0-5.262,1.51-5.386,3.827-.122,2.3,1.721,3.084,3.884,4,1.653.7,2.776,1.19,2.7,2.573-.079,1.488-1.589,2.169-3,2.169a7.522,7.522,0,0,1-3.505-.935,2.137,2.137,0,0,0-.42-.256c-.043,0-.111.043-.133.043l-.334.169c-.112.064-.094.128-.1.276l.126,1.3c.011.191.1.234.371.34a16.327,16.327,0,0,0,3.573.489c3.512,0,5.458-1.956,5.571-4.061.121-2.276-1.8-3.147-3.69-3.977-2.2-.957-3.008-1.319-2.941-2.572.078-1.467,1.454-2.041,2.776-2.041a5.6,5.6,0,0,1,2.587.68,3.136,3.136,0,0,0,.526.3c.021,0,.043,0,.111-.042l.376-.149c.09-.064.094-.127.077-.234Zm13.6,0a.287.287,0,0,0-.222-.3,9.77,9.77,0,0,0-2.84-.4c-3.144,0-5.262,1.51-5.386,3.827-.122,2.3,1.721,3.084,3.883,4,1.653.7,2.777,1.19,2.7,2.573-.079,1.488-1.589,2.169-3,2.169a7.522,7.522,0,0,1-3.505-.935,2.132,2.132,0,0,0-.42-.256c-.044,0-.111.043-.133.043l-.334.169c-.112.064-.094.128-.1.276l.126,1.3c.011.191.1.234.371.34a16.327,16.327,0,0,0,3.573.489c3.511,0,5.458-1.956,5.571-4.061.121-2.276-1.8-3.147-3.69-3.977-2.2-.957-3.008-1.319-2.941-2.572.078-1.467,1.453-2.041,2.776-2.041a5.587,5.587,0,0,1,2.586.68,3.22,3.22,0,0,0,.526.3c.022,0,.044,0,.111-.042l.377-.149c.09-.064.093-.127.077-.234Zm6.013-.447-.721,13.483h9.452l.076-1.446H117.53l.267-5h6.309l.073-1.382h-6.308l.23-4.3h7.087l.073-1.362Z" transform="translate(18.164 31.842)" fill="#1a1919" fill-rule="evenodd"/>
  <path id="Fill-10" d="M121.647,91.688h-3.563l-.187,3.424h-3.748l.188-3.424h-3.561l.2-3.6h3.563l.185-3.424h3.748l-.187,3.424h3.563Zm-12.233-8.8-.763,13.992h14.554l.763-13.992Z" transform="translate(41.738 31.842)" fill="#b4283d" fill-rule="evenodd"/>
</svg>
