<svg xmlns="http://www.w3.org/2000/svg" width="50" height="50" viewBox="0 0 50 50">
  <g id="original" transform="translate(0)">
    <g id="Group_15" data-name="Group 15" transform="translate(0 0)">
      <g id="Group_13" data-name="Group 13" transform="translate(9.831 9.831)">
        <path id="Path_4" data-name="Path 4" d="M114.434,100.668a15.26,15.26,0,0,0-13.765,13.765Z" transform="translate(-100.669 -100.668)" fill="#6a6a6a"/>
        <path id="Path_5" data-name="Path 5" d="M270.374,284.139a15.26,15.26,0,0,0,13.765-13.765Z" transform="translate(-253.801 -253.801)" fill="#6a6a6a"/>
      </g>
      <g id="Group_14" data-name="Group 14">
        <path id="Path_6" data-name="Path 6" d="M6.9,26.527c-.042-.5-.065-1.012-.065-1.527A18.185,18.185,0,0,1,25,6.836c.514,0,1.023.023,1.527.065l5.807-5.807A25.016,25.016,0,0,0,1.094,32.333Z" transform="translate(0 0)" fill="#6a6a6a"/>
        <path id="Path_7" data-name="Path 7" d="M206.34,186.714c.042.5.065,1.012.065,1.527A18.185,18.185,0,0,1,188.24,206.4c-.514,0-1.023-.023-1.527-.065l-5.807,5.807a25.016,25.016,0,0,0,31.239-31.239Z" transform="translate(-163.24 -163.24)" fill="#6a6a6a"/>
      </g>
    </g>
    <g id="Group_16" data-name="Group 16" transform="translate(0 0)">
      <path id="Path_8" data-name="Path 8" d="M147.648,324.653l-.581.582.56.558.563.559.576-.58a.795.795,0,1,0-1.118-1.118Z" transform="translate(-132.705 -292.704)" fill="#6a6a6a"/>
      <path id="Path_9" data-name="Path 9" d="M358.045,140.584l1-1-1.815-.821Z" transform="translate(-322.343 -125.213)" fill="#6a6a6a"/>
      <path id="Path_10" data-name="Path 10" d="M49.142,9.145,40.855.858a2.93,2.93,0,0,0-4.143,0L.858,36.712a2.93,2.93,0,0,0,0,4.143l8.286,8.286a2.93,2.93,0,0,0,4.143,0L49.142,13.288a2.93,2.93,0,0,0,0-4.143ZM13.987,41.192a3.662,3.662,0,1,1,0-5.179A3.666,3.666,0,0,1,13.987,41.192Zm6.45-6.709a.732.732,0,0,1-.778.684l-2.848-.182,1.173,1.173a.732.732,0,1,1-1.036,1.036l-4.143-4.143a.732.732,0,0,1,0-1.036h0l1.1-1.1a2.3,2.3,0,0,1,3.25-.061,2.272,2.272,0,0,1,.346,2.71l2.249.143a.732.732,0,0,1,.684.777Zm1.713-1.454a.732.732,0,0,1-1.036,0l-4.143-4.143a.732.732,0,0,1,1.036-1.036l4.143,4.143A.732.732,0,0,1,22.15,33.029Zm4-4a3.662,3.662,0,1,1-3.288-6.185.732.732,0,0,1,.279,1.438A2.2,2.2,0,1,0,25.112,28a1.712,1.712,0,0,0,.175-2.246l-.662.662a.732.732,0,0,1-1.036-1.036l1.239-1.239a.732.732,0,0,1,1.036,0c1.525,1.525,1.641,3.538.283,4.9Zm3.714-3.714a.732.732,0,0,1-1.036,0l-4.143-4.143a.732.732,0,0,1,1.036-1.036l4.143,4.143A.732.732,0,0,1,29.861,25.318ZM34.732,20.3a.81.81,0,0,1-.885.409l-4.535-.83,2.474,2.474a.732.732,0,1,1-1.036,1.036l-4.135-4.135a.733.733,0,0,1,.65-1.238l4.762.871-2.549-2.5a.732.732,0,0,1-.01-1.036l.005-.005a.732.732,0,0,1,1.031,0l4.042,3.965a.84.84,0,0,1,.187,1Zm5.3-5.228a.732.732,0,0,1-.969.366l-.94-.425L36.343,16.8l.423.944a.732.732,0,1,1-1.337.6L32.9,12.7l-.007-.017a.863.863,0,0,1,.186-.946h0a.862.862,0,0,1,.945-.187l.02.008,5.627,2.543A.733.733,0,0,1,40.037,15.076Zm3.226-3.167c-.468.473-.788.8-1.01,1.017a5.4,5.4,0,0,1-.539.517.732.732,0,0,1-.94-.08l-4.14-4.14A.732.732,0,0,1,37.67,8.187l3.625,3.625c.268-.269.609-.612.927-.933l0,0a.732.732,0,0,1,1.039,1.033Z" transform="translate(0 0)" fill="#6a6a6a"/>
      <path id="Path_11" data-name="Path 11" d="M94.864,373.442a2.2,2.2,0,1,0,3.107,0A2.2,2.2,0,0,0,94.864,373.442Z" transform="translate(-85.02 -336.393)" fill="#6a6a6a"/>
    </g>
  </g>
</svg>
