<svg xmlns="http://www.w3.org/2000/svg" width="50.013" height="50" viewBox="0 0 50.013 50">
  <g id="coffee-beans" transform="translate(0 -0.068)">
    <g id="Group_17" data-name="Group 17" transform="translate(0 0.068)">
      <path id="Path_12" data-name="Path 12" d="M46.184,3.9l-.039-.037,0,0C39.69-2.529,27.88-.6,19.464,7.814a29.9,29.9,0,0,0-3.382,4.033C11.059,11.1,6.637,12.353,3.6,15.39l-.035.036-.007.007C-2.528,21.588-.6,33.984,7.744,42.325,16.19,50.771,28.6,52.546,34.679,46.469l.022-.023.012-.012c3.012-3.036,4.252-7.443,3.51-12.448A29.9,29.9,0,0,0,42.256,30.6C50.715,22.145,52.608,10.328,46.184,3.9ZM21.536,9.886c6.516-6.516,15.093-8.579,20.555-5.452l-.066.023a19,19,0,0,0-12.6,14.027A27.19,27.19,0,0,0,19.2,12.55,27.226,27.226,0,0,1,21.536,9.886ZM9.816,40.253c-6.143-6.143-8.577-15.08-5.662-20.7A19.663,19.663,0,0,0,18.9,32.465,16.7,16.7,0,0,1,31.5,43.618l.448,1.364C26.776,49.135,16.713,47.15,9.816,40.253Zm24.343,2.079A19.635,19.635,0,0,0,19.472,29.59,16.725,16.725,0,0,1,6.926,18.606l-.593-1.742c5.379-4.424,15.127-2.261,22.13,4.742A23.679,23.679,0,0,1,35.275,34.1,12.578,12.578,0,0,1,34.159,42.332Zm3.36-11.46a27.07,27.07,0,0,0-5.656-9.922c.129-.466.242-.937.336-1.409A15.989,15.989,0,0,1,42.969,7.23l1.743-.593c4.409,5.324,2.53,14.837-4.529,21.9A27.274,27.274,0,0,1,37.519,30.873Z" transform="translate(0 -0.068)" fill="#6a6a6a"/>
    </g>
  </g>
</svg>
