<svg xmlns="http://www.w3.org/2000/svg" width="50.002" height="50" viewBox="0 0 50.002 50">
  <g id="coffee-cup" transform="translate(0 -0.008)">
    <g id="Group_19" data-name="Group 19" transform="translate(9.143 0.009)">
      <g id="Group_18" data-name="Group 18" transform="translate(0 0)">
        <path id="Path_13" data-name="Path 13" d="M97.325,6.3a2.677,2.677,0,0,1,0-3.788A1.465,1.465,0,0,0,95.253.438a5.614,5.614,0,0,0,0,7.931,2.677,2.677,0,0,1,0,3.788,1.465,1.465,0,0,0,2.072,2.072A5.614,5.614,0,0,0,97.325,6.3Z" transform="translate(-93.613 -0.009)" fill="#6a6a6a"/>
      </g>
    </g>
    <g id="Group_21" data-name="Group 21" transform="translate(17.932 0.009)">
      <g id="Group_20" data-name="Group 20" transform="translate(0 0)">
        <path id="Path_14" data-name="Path 14" d="M187.322,6.3a2.677,2.677,0,0,1,0-3.788A1.465,1.465,0,1,0,185.25.438a5.614,5.614,0,0,0,0,7.931,2.677,2.677,0,0,1,0,3.788,1.465,1.465,0,0,0,2.072,2.072A5.614,5.614,0,0,0,187.322,6.3Z" transform="translate(-183.611 -0.009)" fill="#6a6a6a"/>
      </g>
    </g>
    <g id="Group_23" data-name="Group 23" transform="translate(26.721 0.009)">
      <g id="Group_22" data-name="Group 22" transform="translate(0 0)">
        <path id="Path_15" data-name="Path 15" d="M277.319,6.3a2.677,2.677,0,0,1,0-3.788A1.465,1.465,0,0,0,275.247.438a5.614,5.614,0,0,0,0,7.931,2.677,2.677,0,0,1,0,3.788,1.465,1.465,0,0,0,2.072,2.072A5.614,5.614,0,0,0,277.319,6.3Z" transform="translate(-273.607 -0.009)" fill="#6a6a6a"/>
      </g>
    </g>
    <g id="Group_25" data-name="Group 25" transform="translate(0 17.684)">
      <g id="Group_24" data-name="Group 24" transform="translate(0)">
        <path id="Path_16" data-name="Path 16" d="M36.818,201.509A13.2,13.2,0,0,0,50,188.325a4.4,4.4,0,0,0-4.395-4.395H41.185q.028-.731.028-1.465A1.465,1.465,0,0,0,39.748,181H1.467A1.465,1.465,0,0,0,0,182.466c0,8.007,2.57,16.407,7.925,22.07H1.467a1.466,1.466,0,0,0-1.31,2.12,12.071,12.071,0,0,0,10.794,6.669H30.265a12.067,12.067,0,0,0,10.794-6.669,1.466,1.466,0,0,0-1.31-2.12h-6.46a24.571,24.571,0,0,0,2.431-3.027h1.1Zm4.14-14.649h4.649a1.467,1.467,0,0,1,1.465,1.465,10.267,10.267,0,0,1-9.6,10.232A34.153,34.153,0,0,0,40.958,186.861Zm-3.98,20.586a9.1,9.1,0,0,1-6.714,2.949H10.95a9.1,9.1,0,0,1-6.713-2.949Zm-8.055-2.91H12.292c-5.395-4.081-8.962-12.021-9.329-20.625l35.289.02C37.928,191.533,34.9,200.017,28.923,204.536Z" transform="translate(0 -181.001)" fill="#6a6a6a"/>
      </g>
    </g>
  </g>
</svg>
