<svg id="instagram" xmlns="http://www.w3.org/2000/svg" width="22.91" height="22.91" viewBox="0 0 22.91 22.91">
  <path id="Path_17" data-name="Path 17" d="M211.385,209.193A2.193,2.193,0,1,1,209.193,207,2.192,2.192,0,0,1,211.385,209.193Zm0,0" transform="translate(-197.738 -197.738)" fill="#402d1a"/>
  <path id="Path_18" data-name="Path 18" d="M146,137a2.178,2.178,0,0,0-1.248-1.248,3.639,3.639,0,0,0-1.221-.226c-.694-.032-.9-.038-2.658-.038s-1.964.007-2.658.038a3.642,3.642,0,0,0-1.221.227A2.179,2.179,0,0,0,135.75,137a3.641,3.641,0,0,0-.226,1.221c-.032.694-.038.9-.038,2.658s.007,1.964.038,2.658a3.639,3.639,0,0,0,.226,1.221A2.178,2.178,0,0,0,137,146.009a3.636,3.636,0,0,0,1.221.227c.694.032.9.038,2.658.038s1.965-.007,2.658-.038a3.635,3.635,0,0,0,1.221-.227A2.178,2.178,0,0,0,146,144.76a3.643,3.643,0,0,0,.227-1.221c.032-.694.038-.9.038-2.658s-.007-1.964-.038-2.658A3.635,3.635,0,0,0,146,137Zm-5.128,7.257a3.378,3.378,0,1,1,3.378-3.378A3.378,3.378,0,0,1,140.877,144.259Zm3.511-6.1a.789.789,0,1,1,.789-.789A.789.789,0,0,1,144.388,138.159Zm0,0" transform="translate(-129.422 -129.426)" fill="#402d1a"/>
  <path id="Path_19" data-name="Path 19" d="M11.455,0A11.455,11.455,0,1,0,22.91,11.455,11.456,11.456,0,0,0,11.455,0Zm6.538,14.167a4.826,4.826,0,0,1-.306,1.6,3.363,3.363,0,0,1-1.924,1.924,4.829,4.829,0,0,1-1.6.306c-.7.032-.925.04-2.712.04s-2.01-.008-2.712-.04a4.829,4.829,0,0,1-1.6-.306,3.363,3.363,0,0,1-1.924-1.924,4.825,4.825,0,0,1-.306-1.6c-.032-.7-.04-.926-.04-2.712s.008-2.01.04-2.712a4.826,4.826,0,0,1,.306-1.6A3.366,3.366,0,0,1,7.146,5.223a4.83,4.83,0,0,1,1.6-.306c.7-.032.925-.04,2.712-.04s2.01.008,2.712.04a4.831,4.831,0,0,1,1.6.305,3.364,3.364,0,0,1,1.924,1.924,4.825,4.825,0,0,1,.306,1.6c.032.7.04.925.04,2.712S18.025,13.465,17.993,14.167Zm0,0" fill="#402d1a"/>
</svg>
