<svg id="koszyk" xmlns="http://www.w3.org/2000/svg" width="26.535" height="26.538" viewBox="0 0 26.535 26.538">
  <g id="Group_27" data-name="Group 27">
    <path id="Path_20" data-name="Path 20" d="M36.733,21.155a2.83,2.83,0,0,0-2.226-1.126H32.552C32.368,15.013,28.734,11,24.293,11s-8.075,4.013-8.259,9.028H14.079a2.83,2.83,0,0,0-2.226,1.126,4.023,4.023,0,0,0-.72,3.4l2.345,10.333a3.177,3.177,0,0,0,2.946,2.654H32.157A3.171,3.171,0,0,0,35.1,34.884l2.35-10.333A4.023,4.023,0,0,0,36.733,21.155ZM24.293,13.21c3.228,0,5.871,3.022,6.044,6.819H18.249C18.422,16.237,21.065,13.21,24.293,13.21ZM35.3,24.058,32.953,34.4c-.119.531-.46.932-.791.932H16.424c-.33,0-.672-.4-.791-.932L13.288,24.058c-.125-.547-.2-1.82.791-1.82H34.507C35.574,22.238,35.422,23.511,35.3,24.058Z" transform="translate(-11.025 -11)" fill="#402d1a"/>
    <path id="Path_21" data-name="Path 21" d="M135.4,259.1a1.1,1.1,0,0,0-1.1,1.1v6.905a1.1,1.1,0,0,0,2.21,0V260.2A1.1,1.1,0,0,0,135.4,259.1Z" transform="translate(-127.624 -245.663)" fill="#402d1a"/>
    <path id="Path_22" data-name="Path 22" d="M234.3,259.1a1.1,1.1,0,0,0-1.1,1.1v6.905a1.1,1.1,0,0,0,2.21,0V260.2A1.109,1.109,0,0,0,234.3,259.1Z" transform="translate(-221.167 -245.663)" fill="#402d1a"/>
    <path id="Path_23" data-name="Path 23" d="M333.1,259.1a1.1,1.1,0,0,0-1.1,1.1v6.905a1.1,1.1,0,0,0,2.21,0V260.2A1.106,1.106,0,0,0,333.1,259.1Z" transform="translate(-314.616 -245.663)" fill="#402d1a"/>
  </g>
</svg>
